<?xml version="1.0" encoding="utf-8"?>
<!-- Generator: Adobe Illustrator 24.2.0, SVG Export Plug-In . SVG Version: 6.00 Build 0)  -->
<svg version="1.1" id="レイヤー_1" xmlns="http://www.w3.org/2000/svg" xmlns:xlink="http://www.w3.org/1999/xlink" x="0px"
	 y="0px" viewBox="0 0 841.9 595.3" style="enable-background:new 0 0 841.9 595.3;" xml:space="preserve">
<g>
	<path d="M262.2,159.3c-7.5-4.8-23.9-11.9-45.7-11.9c-36.1,0-49.8,22.2-49.8,40.9c0,25.6,15.7,38.5,50.5,53.2
		c41.9,17.7,63.4,39.2,63.4,76.4c0,41.3-30,73-85.9,73c-23.5,0-49.1-7.2-62.1-16.4l7.8-23.5c14,9.2,34.8,16,55.9,16
		c34.8,0,55.2-18.8,55.2-46.7c0-25.6-14-41.3-47.7-54.9c-39.2-14.7-65.8-37.5-65.8-73.3c0-39.6,32.1-68.5,79.4-68.5
		c24.5,0,43.3,6.1,53.2,12.3L262.2,159.3z"/>
	<path d="M500.2,127.3l-89.3,259.8h-30l-82.2-259.5h30.7l39.9,130.2c10.9,35.1,20.5,67.9,27.3,98.2h1c6.8-30.3,17.4-64.1,29-98.2
		l43.3-130.6H500.2z"/>
	<path d="M713.6,376.5c-14,5.5-41.3,13.3-74,13.3c-101.9,0-126.2-76-126.2-130.9c0-79.1,51.5-134,133-134c24.9,0,47.1,4.8,60,10.9
		l-7.5,23.5c-12.6-5.8-29-10.6-53.2-10.6c-61.4,0-102.6,39.6-102.6,108.4c0,70.2,39.2,109.4,98.5,109.4c21.8,0,36.5-3.4,44-7.5V276
		h-52.5v-22.8h80.5V376.5z"/>
</g>
<rect x="130.3" y="413.7" width="586" height="22"/>
</svg>
